# xmcd CD database file
#
# Track frame offsets:
#	150
#	16410
#	34092
#	53447
#
# Disc length: 924 seconds
#
# Revision: 0
# Processed by: cddbd v1.5.1PL0 Copyright (c) Steve Scherf et al.
# Submitted via: CDex 1.51
#
DISCID=24039a04
DTITLE=メトロノーム - プラネット
DYEAR=1900
DGENRE=Rock
TTITLE0=プラネット
TTITLE1=デスチョコレイツ
TTITLE2=ハーメルン
TTITLE3=君の訳僕の良い訳
EXTD=
EXTT0=
EXTT1=
EXTT2=
EXTT3=
PLAYORDER=
